<?xml version="1.0" encoding="utf-8"?>
<!-- Generator: Adobe Illustrator 23.0.6, SVG Export Plug-In . SVG Version: 6.00 Build 0)  -->
<svg version="1.1" id="Camada_1" xmlns="http://www.w3.org/2000/svg" xmlns:xlink="http://www.w3.org/1999/xlink" x="0px" y="0px"
	 viewBox="0 0 841.89 595.28" style="enable-background:new 0 0 841.89 595.28;" xml:space="preserve">
<style type="text/css">
	.st0{fill:#ACD2E6;}
	.st1{fill:#FFFFFF;}
	.st2{fill:#EEEDED;}
</style>
<path class="st0" d="M863.54,455.22l-450.7-67.24l-424.65,67.24V57.94c0,0,153.52-44.93,437.68-44.93
	c248.94,0,437.68,44.93,437.68,44.93V455.22z"/>
<path class="st1" d="M851.89,496.59l-433.1-107.03l-433.1,107.03V240.35c0,0,151.92-151.88,433.1-151.88
	c246.34,0,433.1,151.88,433.1,151.88V496.59z"/>
<path class="st2" d="M418.79,365.35c-281.18,0-433.1,102.72-433.1,102.72v127.21c0,0,151.92-170.91,433.1-170.91
	c246.34,0,433.1,170.91,433.1,170.91V468.07C851.89,468.07,665.13,365.35,418.79,365.35z"/>
</svg>
