<?xml version="1.0" encoding="utf-8"?>
<!-- Generator: Adobe Illustrator 23.1.0, SVG Export Plug-In . SVG Version: 6.00 Build 0)  -->
<svg version="1.1" id="Camada_1" xmlns="http://www.w3.org/2000/svg" xmlns:xlink="http://www.w3.org/1999/xlink" x="0px" y="0px"
	 viewBox="0 0 425.2 283.46" style="enable-background:new 0 0 425.2 283.46;" xml:space="preserve">
<style type="text/css">
	.st0{fill:#EB5E5E;}
	.st1{fill:#792D87;}
	.st2{fill:none;}
	.st3{fill:#FFFFFF;}
</style>
<g>
	<path class="st0" d="M104.98,153.28c-2.59,2.45-4.91,3.56-6.93,3.89c0.29,3.65,1.64,13.18,8.04,12.36
		c7.32-0.93,7.85-9.18,7.29-16.75C109.78,154.48,104.98,153.28,104.98,153.28z"/>
	<path class="st1" d="M225.26,123.77c0.51-1.28,1.54-1.85,2.52-1.85c1.2,0,2.33,0.86,2.33,2.31c0,0.34-0.06,0.71-0.2,1.11
		c-4.27,11.1-8.55,17.55-13.8,17.55c-4.13,0-7.05-2.93-7.05-8.77c0-5.4,1.12-9.67,1.12-12.9c0-2.33-0.9-3.22-2.77-3.22
		c-3.45,0-8.36,4.1-8.38,14.72v0.09c0,1.72,0.3,3.43,0.3,3.88c0,1.57-0.9,2.77-2.55,2.77c-2.62,0-3.75-0.05-3.75-6.35
		c0-6.15,1.49-8.51,1.49-11.06c0-1.5-0.68-2.17-2.25-2.17c-3.62,0-9.38,5.7-10.24,15.17c-0.02,1.57-0.03,3.26-0.03,5.08
		c0,2.1-1.12,3.38-2.92,3.38c-2.1,0-3.07-1.27-3.07-3.38c0-9.97-0.08-16.54,0.74-22.69c0.22-1.65,1.27-3,3.15-3
		c1.95,0,2.77,1.2,2.77,3.22c0,0.69,0.19,0.06-0.08,3.63c2.9-4.53,6.66-6.89,11.04-6.89c2.41,0,4.58,1.34,5.76,3.37
		c2.67-3.48,5.92-5.25,9.47-5.25c4.42,0,7.42,3,7.42,7.43c0,3.75-1.2,9-1.2,15.07c0,1.58,0.75,2.33,1.72,2.33
		C219.48,137.34,223.46,128.34,225.26,123.77L225.26,123.77z"/>
	<path class="st1" d="M261.04,123.76c0.56-1.43,1.52-2.01,2.44-2.01c1.24,0,2.41,1.06,2.41,2.51c0,0.34-0.06,0.7-0.21,1.08
		c-4.27,11.32-8.17,17.77-13.57,17.77c-3.09,0-6.05-2.14-7.28-6.7c-2.97,4.39-6.28,6.7-10.64,6.7c-5.92,0-10.2-4.12-10.2-12.15
		c0-10.8,7.57-18.75,15.22-18.75c1.99,0,4.01,0.52,5.92,1.63c0.54-1.46,1.51-2.31,3.01-2.31c1.43,0,2.7,1.05,2.7,3.22
		c0,1.8-1.2,10.72-1.2,15c0,6.37,1.5,7.87,3,7.87C255.03,137.64,258.41,130.44,261.04,123.76L261.04,123.76z M235.01,137.56
		c2.64,0,7.16-2.37,9.04-10.85c0.25-1.63,0.45-3.45,0.53-6.28c-0.63-1.66-2.33-2.74-4.61-2.74c-5.02,0-9.97,5.62-9.97,13.05
		C229.99,135.46,232.09,137.56,235.01,137.56L235.01,137.56z"/>
	<path class="st1" d="M287.58,123.77c0.54-1.37,1.52-1.94,2.45-1.94c1.24,0,2.4,0.99,2.4,2.44c0,0.34-0.06,0.7-0.2,1.07
		c-2.72,7.23-7.95,12.88-14.71,15.44c-1.94,1.69-4.54,2.48-7.04,2.48c-2.25,0-4.5-0.6-6.07-1.8c-1.2-0.9-1.73-2.03-1.73-3.08
		c0-1.41,1.01-2.63,2.81-2.63c0.5,0,1.07,0.1,1.69,0.31c1.35,0.45,2.7,0.75,3.98,0.75c0.6,0,1.19-0.03,1.75-0.09
		c1.05-0.65,1.77-1.98,1.77-3.96c0-4.37-4.13-8.69-7.09-12.66c-0.61,1.8-1.22,3.52-1.91,5.23c-0.52,1.32-1.5,1.87-2.45,1.87
		c-1.24,0-2.42-0.94-2.42-2.35c0-0.34,0.07-0.71,0.22-1.09c1.16-2.95,2.31-5.91,3.61-9.71c0-0.09-0.01-0.18-0.01-0.27
		c0-3.67,2.55-5.25,4.95-5.25c2.03,0,3.9,1.2,3.9,3.37c0,1.5-1.65,2.7-1.65,3.68c0,2.77,8.77,9.07,8.77,17.85c0,0.06,0,0.12,0,0.19
		C283.93,131.06,286.17,127.32,287.58,123.77L287.58,123.77z"/>
	<path class="st1" d="M300.86,143.41c-8.32,0-13.87-5.55-13.87-14.47c0-10.27,6.6-16.87,13.87-16.87c5.55,0,9.07,3.52,9.07,7.65
		c0,3-1.2,4.2-2.92,4.2c-1.87,0-2.85-0.97-2.85-3.08c0-2.02-1.27-3.3-3.3-3.3c-3.9,0-7.87,3.97-7.87,11.32
		c0,5.92,3.15,9.07,7.95,9.07c5.25,0,10.65-3.97,14.85-14.17c0.56-1.37,1.52-1.93,2.43-1.93c1.25,0,2.42,1.03,2.42,2.45
		c0,0.33-0.06,0.68-0.21,1.05C315.33,138.39,308.13,143.41,300.86,143.41L300.86,143.41z"/>
	<path class="st1" d="M347.73,123.76c0.52-1.35,1.51-1.92,2.47-1.92c1.23,0,2.41,0.95,2.41,2.38c0,0.35-0.07,0.72-0.22,1.12
		c-2.56,6.79-8.13,10.25-13.57,10.74c-2.43,4.25-6.49,7.34-12.23,7.34c-8.25,0-11.92-6.52-11.92-13.65
		c0-8.77,5.55-18.52,14.85-18.52c1.98,0,3.7,0.38,5.14,0.99c4.18,1.6,6.94,7.09,6.94,12.96c0,1.83-0.22,3.71-0.66,5.52
		C343.72,129.74,346.32,127.46,347.73,123.76L347.73,123.76z M326.66,137.94c2.08,0,4.16-0.96,5.79-2.83
		c-4.87-2.13-7.9-7.22-7.9-12.09c0-1.7,0.26-3.37,0.74-4.89c-3,2.46-4.72,7.29-4.72,11.64
		C320.58,135.31,323.21,137.94,326.66,137.94L326.66,137.94z M332.13,117.31c-1.65,0-2.62,2.17-2.62,4.8c0,3.78,2.09,7.28,5.33,8.6
		c0.52-1.65,0.82-3.57,0.82-5.75C335.66,120.76,334.38,117.32,332.13,117.31L332.13,117.31z"/>
	<path class="st1" d="M368.14,123.76c0.54-1.38,1.5-1.95,2.42-1.95c1.25,0,2.43,1.03,2.43,2.47c0,0.33-0.06,0.69-0.2,1.06
		c-4.42,11.77-8.32,17.77-15.07,17.77c-6.3,0-10.27-3.97-10.27-12.75c0-3.37,0.67-8.55,1.5-13.8c0.25-1.59,0.54-3.39,0.84-5.31
		c-0.49-0.01-0.99-0.01-1.51-0.01c-1.95,0-2.92-1.27-2.92-2.62c0-1.27,0.97-2.55,3.07-2.55c0.7,0,1.41,0.01,2.11,0.03
		c0.41-3.1,0.42-2.31,0.89-4.82c0.35-1.92,1.57-3,3.15-3c1.42,0,2.92,1.05,2.92,3.07c0,1.45-0.46,0.94-1,5.15
		c2.05,0.22,4.14,0.55,6.32,1c1.43,0.3,2.03,1.35,2.03,2.47c0,1.35-0.9,2.55-2.33,2.55c-0.82,0-3.03-0.52-6.71-0.9
		c-0.35,2.54-0.68,4.72-0.87,5.85c-0.9,5.25-1.42,10.35-1.42,13.27c0,5.25,1.65,6.9,4.5,6.9
		C362.81,137.64,366.11,128.94,368.14,123.76L368.14,123.76z"/>
	<path class="st1" d="M403.91,123.76c0.56-1.43,1.52-2.01,2.44-2.01c1.24,0,2.41,1.06,2.41,2.51c0,0.34-0.06,0.7-0.21,1.08
		c-4.27,11.32-8.17,17.77-13.57,17.77c-3.09,0-6.05-2.14-7.28-6.7c-2.97,4.39-6.28,6.7-10.64,6.7c-5.92,0-10.2-4.12-10.2-12.15
		c0-10.8,7.57-18.75,15.22-18.75c1.99,0,4.01,0.52,5.92,1.63c0.54-1.46,1.51-2.31,3.01-2.31c1.43,0,2.7,1.05,2.7,3.22
		c0,1.8-1.2,10.72-1.2,15c0,6.37,1.5,7.87,3,7.87C397.91,137.64,401.28,130.44,403.91,123.76L403.91,123.76z M377.88,137.56
		c2.64,0,7.16-2.37,9.04-10.85c0.25-1.63,0.45-3.45,0.53-6.28c-0.63-1.66-2.33-2.74-4.61-2.74c-5.02,0-9.97,5.62-9.97,13.05
		C372.86,135.46,374.96,137.56,377.88,137.56L377.88,137.56z"/>
	<path class="st1" d="M55.47,140.66c-0.1,0-0.19-0.01-0.29-0.03c-7.61-1.39-12.97-11.03-16.44-16.96
		c-6.12-10.47-9.73-29.74-4.99-38.26c1.28-2.3,3.25-3.47,5.7-3.41c4.96,0.13,12.77,4.89,23.2,14.15
		c7.61,6.76,12.51,11.76,12.57,11.83c0.61,0.66,0.25,1.28-0.41,1.89c-0.66,0.61-1.36,0.98-1.97,0.33
		c-6.84-7.37-25.01-24.73-33.48-24.95c-1.23-0.03-2.09,0.51-2.78,1.74c-5.06,8.32,0.5,28.35,4.87,34.9
		c0.82,1.25,8.13,14.42,14.3,15.55c0.88,0.16,1.47,1.01,1.31,1.89C56.92,140.11,56.24,140.66,55.47,140.66z"/>
	<g>
		<path class="st0" d="M64.39,120.22c0,0,0.21-1.25-3.17,0.13c0,0,0.27-3.29,4.45-4.27c0,0-5.36-4.57-8.31-4
			c0,0,2.14-3.62,7.11-3.32c0,0-16.93-19.91-23.84-15.24s4.86,33.77,16.55,40.19C57.18,133.72,58.88,124.81,64.39,120.22z"/>
		<path class="st1" d="M55.84,134.65c-0.27,0-0.54-0.07-0.78-0.2c-9.41-5.17-17.58-23.47-18.09-34.42
			c-0.18-3.85,0.75-6.49,2.75-7.85c0.97-0.66,2.11-0.99,3.39-0.99c8.17,0,20.72,14.32,22.52,16.42c0.3,0.29,0.48,0.7,0.48,1.15
			c0,0.9-0.73,1.63-1.63,1.63h0c-0.04,0-0.07,0-0.1,0c-1.49-0.09-2.67,0.25-3.54,0.71c2.8,1.16,5.5,3.42,5.9,3.75
			c0.47,0.4,0.67,1.02,0.52,1.62c-0.14,0.6-0.61,1.06-1.21,1.2c-0.63,0.15-1.14,0.36-1.54,0.6c1.26,0.25,0.38,0.1,0.69,0.76
			c0.31,0.67-0.23,0.72-0.8,1.19c-5.08,4.24-6.98,13.21-7.01,13.3c-0.15,0.46-0.49,0.84-0.95,1.02
			C56.25,134.61,56.04,134.65,55.84,134.65z M43.1,94.44c-0.63,0-1.14,0.14-1.57,0.43c-0.97,0.66-1.44,2.44-1.32,5.01
			c0.43,9.31,8.23,25.55,16.14,31.38c0.92-2.29,2.74-6.16,5.51-9.41c-0.01,0-0.02,0.01-0.02,0.01c-0.52,0.21-1.12,0.14-1.58-0.19
			c-0.46-0.33-0.7-0.88-0.66-1.44c0.01-0.14,0.27-2.78,2.86-4.52c-1.58-1.07-3.4-2.04-4.56-2.04c-0.09,0-0.17,0.01-0.24,0.02
			c-0.63,0.12-1.27-0.14-1.64-0.66c-0.37-0.52-0.4-1.21-0.07-1.76c0.08-0.14,1.68-2.78,5.19-3.77
			C56.49,102.46,48.01,94.44,43.1,94.44z"/>
	</g>
	<path class="st0" d="M129.38,228.35c0,2.55-19.81,4.83-44.23,4.83c-24.42,0-44.22-1.5-44.22-4.05c0-0.94,3.43,0.36,7.99-0.21
		c7.88-0.99,30.88-2.59,37.98,0.45c6.35,2.72,7.54-3.93,11.83-3.89C116.5,225.65,129.38,226.29,129.38,228.35z"/>
	<path class="st2" d="M44.89,212.34c0,0-5.17,16.2,19.67,15.36c0,0,20.83,2,23.67-11"/>
	<g>
		<path class="st1" d="M123.24,229.45c-4.17,0-7.26-0.24-9.32-2.46c-0.32-0.35-0.61-0.73-0.85-1.16c-1.2-2.06,1.94-3.76,2.52-2.27
			c0.19,0.5,0.43,0.9,0.72,1.22c1.36,1.47,4.4,1.44,8.6,1.41l0.65,0c3.66-0.02,4.07-2.42,4.23-8.76c0.08-3.34,0.17-6.79,1.46-9.72
			c2.97-6.72,2.14-13.99,2.13-14.18c-0.06-0.9,0.23-2.52,1.12-2.58c0.89-0.06,1.67,0.61,1.73,1.51c0.06,0.79,1.28,9.11-2.01,16.56
			c-1.03,2.34-1.11,5.47-1.19,8.49c-0.13,5.29-0.3,11.88-7.46,11.93l-0.64,0C124.35,229.45,123.78,229.45,123.24,229.45z"/>
	</g>
	<path class="st1" d="M48.98,231.36c-1.26,0-2.52-0.14-3.67-0.27c-0.31-0.04-0.62-0.07-0.93-0.1c-1.65-0.17-2.99-0.91-3.88-2.12
		c-1.32-1.81-1.33-4.22-1.2-5.6c-2.66-2.13-4.23-4.85-4.68-8.08c-1.21-8.65,6.17-17.92,6.48-18.31c0.56-0.7,1.59-0.81,2.29-0.24
		c0.7,0.56,0.81,1.59,0.25,2.28l0,0c-0.07,0.08-6.82,8.58-5.8,15.82c0.37,2.66,1.73,4.77,4.14,6.47c0.53,0.37,0.79,1.03,0.65,1.66
		c-0.14,0.69-0.35,2.93,0.49,4.08c0.22,0.3,0.62,0.7,1.58,0.8c0.31,0.03,0.63,0.07,0.96,0.11c2.56,0.29,5.46,0.62,7.14-0.85
		c1.24-1.09,1.9-3.22,1.95-6.33c0.08-5.28,0.08-7.27,0.07-8.01c-0.06-0.18-0.08-0.38-0.06-0.59c0.11-1.39,1.18-1.7,1.73-1.68
		c0.35,0.02,1.52,0.2,1.58,1.85c0.01,0.23,0.02,0.63,0.02,1.27c0,1.45-0.02,3.88-0.07,7.21c-0.06,4.12-1.06,6.97-3.05,8.72
		C53.24,230.97,51.1,231.36,48.98,231.36z"/>
	<path class="st1" d="M84.16,233.48c-2.43,0-4.62-0.23-5.73-0.42c-1.51-0.25-5.53-0.93-5.15-3.56c0.12-1.49-2.3-12.83-4.71-22.92
		c-0.21-0.87,0.33-1.75,1.2-1.96c0.87-0.21,1.75,0.33,1.96,1.2c1.12,4.69,4.57,19.37,4.78,23.4c1.86,0.85,9.66,1.69,13.59,0.24
		c0.93-0.34,1.18-0.68,1.19-0.74c0.81-4.23,3.05-22.54,3.08-22.72c0.11-0.89,0.92-1.52,1.81-1.42c0.89,0.11,1.53,0.92,1.42,1.81
		c-0.09,0.76-2.28,18.61-3.11,22.94C93.85,232.69,88.62,233.48,84.16,233.48z"/>
	<g>
		<path class="st1" d="M74.8,186.91c-6.65-2.47-9.21-9.72-9.24-9.79c-0.25-0.73-0.97-1.18-1.73-1.09c-0.49,0.06-0.91,0.33-1.17,0.72
			c-2.6-4.2-0.81-7.38-0.72-7.52c0.38-0.62,0.3-1.42-0.2-1.96c-0.23-0.25-0.53-0.41-0.85-0.48c0.36-1.09,0.79-2.06,1.26-2.94
			c-0.54-1.16-0.98-2.55-1.34-3.97c-1.68,2.26-3.12,5.26-3.86,9.25c-0.11,0.61,0.13,1.23,0.63,1.6c0.15,0.11,0.32,0.19,0.49,0.25
			c-0.32,2.92,0.51,6.91,4.55,10.83c0.45,0.44,1.11,0.58,1.7,0.36c0.04-0.01,0.08-0.03,0.12-0.05c1.71,2.72,4.64,6.14,9.22,7.84
			c0.84,0.31,1.78-0.12,2.09-0.96C76.07,188.16,75.64,187.22,74.8,186.91z"/>
		<path class="st1" d="M140.29,157.73c-0.18,0.59-0.38,1.19-0.59,1.81l-1.4-1.69c0,0,0.1,0.34-0.84,1.54
			c1.52,2.11,3.29,5.34,4.13,9.68l-1.55-0.79c-0.62-0.32-1.38-0.21-1.88,0.28c-0.5,0.49-0.63,1.24-0.33,1.87
			c0.02,0.05,2.09,4.46,1.16,10.17l-1.58-1.22c-0.51-0.39-1.21-0.45-1.77-0.14c-0.57,0.31-0.9,0.93-0.84,1.57
			c0.01,0.09,0.73,8.79-3.36,15.4l-1.32-0.91c-0.44-0.3-0.99-0.37-1.49-0.19c-0.5,0.19-0.87,0.6-1.01,1.12
			c-0.02,0.09-2.1,8.02-6.62,15.85l-0.46-0.79c-0.34-0.6-1.03-0.92-1.71-0.79c-0.68,0.13-1.2,0.67-1.31,1.35
			c-0.08,0.52-2.1,12.78-11.58,12.74c-3.99-0.02-8.37-0.12-12.33-0.25c-0.18,1.23-0.34,2.34-0.48,3.24
			c4.08,0.13,8.65,0.25,12.8,0.26c7.72,0.03,11.93-6.22,13.79-11.51c0.3,0.34,0.73,0.55,1.19,0.57c0.57,0.02,1.1-0.27,1.41-0.74
			c4.2-6.5,6.71-13.44,7.8-16.9l0.81,0.56c0.72,0.5,1.7,0.34,2.22-0.36c3.86-5.11,4.77-11.55,4.93-15.46l0.92,0.71
			c0.42,0.33,0.98,0.42,1.49,0.26s0.91-0.56,1.06-1.08c1.31-4.32,1.02-8.23,0.45-10.96l0.87,0.45c0.52,0.27,1.15,0.23,1.64-0.09
			c0.49-0.33,0.77-0.89,0.72-1.48C144.74,165.36,142.38,160.69,140.29,157.73z"/>
	</g>
	<ellipse transform="matrix(0.5 -0.866 0.866 0.5 -145.8527 145.4747)" class="st1" cx="53.06" cy="199.05" rx="10.41" ry="12.15"/>
	<ellipse transform="matrix(0.5 -0.866 0.866 0.5 -133.2814 155.7221)" class="st1" cx="68.22" cy="193.29" rx="4.16" ry="4.13"/>
	<path class="st1" d="M89.72,229.04c0.08-0.53,0.3-3.71-3.48-6.58c-4.38-3.05-9.66-1.98-12,2.35c0.38,2.45,0.61,4.33,0.54,4.93
		C74.5,232.04,89.03,233.37,89.72,229.04z"/>
	<path class="st1" d="M134.56,123.31c-0.53,0-1.05-0.26-1.36-0.73c-0.49-0.75-0.29-1.76,0.46-2.25c6.6-4.09,7.89-20.38,8.14-21.74
		c0.5-2.79,0.69-10.41-1.15-18.28c-1.9-8.15-5.3-13.61-8.03-15.74c-1.12-0.87-2.12-1.03-3.24-0.52
		c-7.7,3.51-18.08,29.02-21.53,38.93c-0.29,0.85-1.22,1.3-2.07,1c-0.85-0.29-1.3-1.22-1-2.07c0.03-0.09,2.99-8.29,7.37-17.88
		c6.01-13.15,11.35-20.87,15.87-22.93c2.23-1.02,4.51-0.7,6.58,0.91c7.7,5.99,11.64,30.22,10.38,37.16
		c-0.24,1.31-1.31,18.6-9.55,23.87C135.18,123.22,134.87,123.31,134.56,123.31z"/>
	<g>
		<path class="st0" d="M119.3,106.79c0,0,0.06-1.82,3.72-1.88c0,0-1.54-2.92-5.76-2.19c0,0,3.14-6.31,6.09-6.93
			c0,0-3.38-2.49-7.84-0.28c0,0,7.79-24.95,15.98-23.35c8.19,1.6,8.74,32.98,0.49,43.46C131.97,115.63,126.16,108.86,119.3,106.79z"
			/>
		<path class="st1" d="M131.97,117.25c-0.47,0-0.51-1.08-0.82-1.44c-0.07-0.09-5.28-6.75-11.58-8.65c-0.71-0.21-1.51-0.57-1.48-1.31
			c0-0.09-0.33-0.6,1.11-1.59c-0.48-0.06-1.06-0.05-1.66,0.05c-0.6,0.11-1.22-0.14-1.58-0.63c-0.37-0.49-0.43-1.15-0.15-1.7
			c0.39-0.79,1.92-3.7,3.95-5.76c-0.16-0.01-0.33-0.02-0.51-0.02c-1,0-2.02,0.25-3.02,0.75c-0.58,0.29-1.28,0.2-1.78-0.22
			c-0.5-0.42-0.69-1.1-0.5-1.72c0.08-0.24,1.9-6.04,4.73-11.93c4.09-8.5,8.03-12.63,12.04-12.63c0.36,0,0.72,0.04,1.07,0.1
			c2.37,0.46,4.26,2.53,5.6,6.15c3.82,10.28,2.9,30.6-3.73,39.04c-0.3,0.38-1.17,1.48-1.65,1.49
			C131.99,117.25,131.98,117.25,131.97,117.25z M123.01,106.54c3.82,1.91,7.01,4.76,8.75,6.51c5-8.46,5.82-26.46,2.58-35.19
			c-0.9-2.41-2.02-3.86-3.18-4.09c-0.15-0.03-0.3-0.04-0.45-0.04c-4.15,0-9.53,10.49-12.68,19.33c0.4-0.05,0.8-0.08,1.2-0.08
			c2.93,0,4.85,1.36,5.06,1.51c0.51,0.38,0.76,1.03,0.62,1.65c-0.14,0.63-0.62,1.11-1.25,1.25c-0.99,0.21-2.44,1.92-3.62,3.74
			c2.43,0.47,3.88,2.04,4.4,3.03c0.26,0.5,0.25,1.1-0.04,1.59c-0.29,0.49-0.81,0.79-1.37,0.8
			C123.03,106.54,123.02,106.54,123.01,106.54z"/>
	</g>
	<g>
		<path class="st1" d="M96.75,158.91c-0.36,0-0.72-0.02-1.07-0.06c-4.75-0.54-7.44-4.5-7.55-4.66c-0.5-0.75-0.3-1.76,0.45-2.25
			c0.74-0.5,1.75-0.3,2.25,0.44c0.04,0.05,2.02,2.9,5.25,3.25c2.43,0.26,5.05-0.92,7.79-3.52c0.4-0.38,0.97-0.53,1.51-0.4
			c0.05,0.01,5.54,1.33,8.43-1.09c1.37-1.15,1.98-3.07,1.81-5.73c-0.06-0.9,0.62-1.67,1.52-1.73c0.9-0.06,1.67,0.62,1.73,1.52
			c0.24,3.75-0.76,6.59-2.98,8.44c-3.33,2.78-8.38,2.27-10.41,1.92C102.55,157.61,99.63,158.91,96.75,158.91z"/>
	</g>
	<g>
		<path class="st1" d="M110.33,141.61c0.45,2.3-1.92,7.18-5.87,7.95c-3.95,0.77-7.98-2.86-8.43-5.16c-0.45-2.3,2.7-3.21,6.65-3.97
			C106.62,139.65,109.88,139.31,110.33,141.61z"/>
		<path class="st1" d="M103.35,151.29c-4.23,0-8.34-3.6-8.92-6.58c-0.2-1.04-0.14-2.99,2.55-4.33c1.46-0.73,3.45-1.18,5.39-1.55
			c1.55-0.3,3.33-0.61,4.83-0.61c3.41,0,4.45,1.68,4.73,3.08c0.31,1.6-0.27,3.8-1.52,5.74c-1.43,2.22-3.43,3.68-5.64,4.11
			C104.31,151.24,103.83,151.29,103.35,151.29z M107.19,141.47c-1.22,0-2.81,0.28-4.21,0.55c-1.63,0.32-3.44,0.72-4.56,1.27
			c-0.87,0.44-0.83,0.68-0.8,0.8c0.26,1.32,2.91,3.95,5.73,3.95c0.27,0,0.54-0.03,0.79-0.08c1.79-0.35,2.98-1.83,3.53-2.68
			c0.85-1.33,1.18-2.72,1.06-3.36C108.67,141.62,108.16,141.47,107.19,141.47z"/>
	</g>
	<g>
		<path class="st3" d="M104.98,153.28c0,0,2.09,3.62,1.11,8.5"/>
		<path class="st1" d="M106.09,163.4c-0.11,0-0.21-0.01-0.32-0.03c-0.88-0.18-1.45-1.03-1.27-1.91c0.83-4.17-0.91-7.34-0.93-7.37
			c-0.44-0.78-0.17-1.77,0.61-2.21c0.78-0.44,1.76-0.18,2.21,0.6c0.1,0.17,2.38,4.21,1.3,9.63
			C107.53,162.87,106.85,163.4,106.09,163.4z"/>
	</g>
	<g>
		<circle class="st1" cx="84.92" cy="137.2" r="4.56"/>
	</g>
	<g>
		<circle class="st1" cx="84.92" cy="137.2" r="4.56"/>
	</g>
	<path class="st1" d="M127.59,113.42c-8.29-4.78-18.38-2.82-22.53,4.38c-4.16,7.2-0.81,16.92,7.47,21.7
		c8.29,4.78,18.38,2.82,22.53-4.38C139.22,127.92,135.87,118.21,127.59,113.42z M116.9,135.8c-2.52,0-4.56-2.04-4.56-4.56
		c0-2.52,2.04-4.56,4.56-4.56c2.52,0,4.56,2.04,4.56,4.56C121.46,133.76,119.42,135.8,116.9,135.8z"/>
	<g>
		<path class="st1" d="M106.03,180.15c-3.92,0-7.08-1.25-7.3-1.33c-0.83-0.34-1.23-1.28-0.9-2.12c0.34-0.83,1.28-1.23,2.11-0.9
			c0.11,0.04,7.72,3,12.93-1.04c0.71-0.55,1.73-0.42,2.28,0.29c0.55,0.71,0.42,1.73-0.29,2.28
			C112.06,179.51,108.84,180.15,106.03,180.15z"/>
	</g>
	<path class="st1" d="M145.14,143.5c-0.46-3.03-2.26-7.15-3.64-10.01l0.32,0.09c0.59,0.16,1.22-0.02,1.63-0.47
		c0.41-0.45,0.53-1.1,0.32-1.67c-5.17-13.62-13.1-20.91-18.84-24.63c-5.96-3.86-10.82-4.78-11.49-4.9
		c-0.81-0.19-8.37-1.86-17.93-1.25c-13.24,0.85-23.92,5.78-30.87,14.24c-8.7,10.59-10.86,20.89-11.14,27.67
		c-0.31,7.4,1.47,12.26,1.54,12.47c0.2,0.53,0.65,0.91,1.2,1.03c0.55,0.11,1.12-0.07,1.5-0.47l0.45-0.47
		c0.46,3.21,1.38,7.81,3.1,10.6l1.8-3.76c-1.12-3.1-1.82-7.66-2.05-10.6c-0.05-0.64-0.47-1.19-1.07-1.41
		c-0.6-0.22-1.28-0.06-1.72,0.41l-0.85,0.89c-1.14-5.68-2.23-19.68,9.75-34.27c6.44-7.84,16.02-12.23,28.48-13.05
		c9.43-0.62,17.04,1.15,17.11,1.17c0.04,0.01,0.09,0.02,0.14,0.03c0.18,0.03,17.05,2.82,26.61,24.46l-0.7-0.19
		c-0.63-0.17-1.3,0.05-1.71,0.56c-0.4,0.51-0.46,1.22-0.14,1.79c0.04,0.07,2.98,5.72,3.27,12.28c0.01,0.05,0.41,7.34-0.94,11.24
		c-1.18,3.5-1.77,4.16-1.77,4.16l0.88,1.28c0.37,0.45,0.96,0.67,1.54,0.57c0.58-0.1,1.06-0.51,1.25-1.06
		c2.45-6.98,2.62-12.16,2.46-14.84c0.43-0.02,0.83-0.22,1.12-0.54C145.07,144.46,145.21,143.98,145.14,143.5z"/>
	<path class="st0" d="M153.06,61.24c8.41-0.33,15.17-7.09,15.5-15.5c0.01,0,0.01,0,0.02,0s0.01,0,0.02,0
		c0.33,8.41,7.09,15.17,15.5,15.5c0,0.01,0,0.01,0,0.02c0,0.01,0,0.01,0,0.02c-8.41,0.33-15.17,7.09-15.5,15.5
		c-0.01,0-0.01,0-0.02,0s-0.01,0-0.02,0c-0.33-8.41-7.09-15.17-15.5-15.5c0-0.01,0-0.01,0-0.02
		C153.06,61.25,153.06,61.25,153.06,61.24z"/>
	<path class="st0" d="M147.66,77.44c4.32-0.17,7.78-3.64,7.95-7.95c0,0,0.01,0,0.01,0c0,0,0.01,0,0.01,0
		c0.17,4.32,3.64,7.78,7.95,7.95c0,0,0,0.01,0,0.01s0,0.01,0,0.01c-4.32,0.17-7.78,3.64-7.95,7.95c0,0-0.01,0-0.01,0
		c0,0-0.01,0-0.01,0c-0.17-4.32-3.64-7.78-7.95-7.95C147.66,77.45,147.66,77.45,147.66,77.44
		C147.66,77.45,147.66,77.44,147.66,77.44z"/>
	<path class="st0" d="M163.85,87.43c3.29-0.13,5.94-2.77,6.07-6.07c0,0,0,0,0.01,0c0,0,0,0,0.01,0c0.13,3.29,2.77,5.94,6.07,6.07
		c0,0,0,0,0,0.01c0,0,0,0,0,0.01c-3.29,0.13-5.94,2.77-6.07,6.07c0,0,0,0-0.01,0c0,0,0,0-0.01,0c-0.13-3.29-2.77-5.94-6.07-6.07
		C163.85,87.44,163.85,87.44,163.85,87.43C163.85,87.43,163.85,87.43,163.85,87.43z"/>
	<path class="st0" d="M38.27,147.01c-6.05-0.23-10.9-5.09-11.14-11.14c0,0-0.01,0-0.01,0c0,0-0.01,0-0.01,0
		c-0.23,6.05-5.09,10.9-11.14,11.14c0,0,0,0.01,0,0.01c0,0,0,0.01,0,0.01c6.05,0.23,10.9,5.09,11.14,11.14c0,0,0.01,0,0.01,0
		c0,0,0.01,0,0.01,0c0.23-6.05,5.09-10.9,11.14-11.14c0,0,0-0.01,0-0.01C38.27,147.02,38.27,147.01,38.27,147.01z"/>
	<path class="st0" d="M42.15,158.65c-3.1-0.12-5.59-2.61-5.71-5.71c0,0,0,0-0.01,0s0,0-0.01,0c-0.12,3.1-2.61,5.59-5.71,5.71
		c0,0,0,0,0,0.01c0,0,0,0,0,0.01c3.1,0.12,5.59,2.61,5.71,5.71c0,0,0,0,0.01,0s0,0,0.01,0c0.12-3.1,2.61-5.59,5.71-5.71
		C42.15,158.66,42.15,158.66,42.15,158.65C42.15,158.65,42.15,158.65,42.15,158.65z"/>
	<path class="st0" d="M33.23,165.82c-2.37-0.09-4.27-1.99-4.36-4.36c0,0,0,0,0,0c0,0,0,0,0,0c-0.09,2.37-1.99,4.27-4.36,4.36
		c0,0,0,0,0,0c0,0,0,0,0,0c2.37,0.09,4.27,1.99,4.36,4.36c0,0,0,0,0,0c0,0,0,0,0,0C28.96,167.83,30.86,165.92,33.23,165.82
		C33.23,165.83,33.23,165.83,33.23,165.82C33.23,165.83,33.23,165.83,33.23,165.82z"/>
	<g>
		<path class="st0" d="M222.79,208.66c0,0.03-0.03,0.51-0.09,1.45c-0.06,0.94-0.12,2.17-0.17,3.7c-0.05,1.52-0.09,3.25-0.11,5.19
			c-0.02,1.93-0.02,3.91,0,5.93c0.02,2.02,0.1,4,0.22,5.93c0.12,1.93,0.32,3.67,0.59,5.2c0.05,0.2,0.02,0.37-0.09,0.52
			c-0.11,0.15-0.27,0.25-0.46,0.3h-0.15c-0.4,0-0.62-0.2-0.67-0.59c-0.27-1.56-0.48-3.31-0.61-5.24c-0.14-1.93-0.22-3.91-0.26-5.93
			c-0.04-2.02-0.04-4-0.02-5.93c0.02-1.93,0.07-3.66,0.13-5.19c0.06-1.52,0.12-2.78,0.17-3.77c0.05-0.99,0.09-1.55,0.11-1.67
			c0-0.2,0.07-0.36,0.22-0.48c0.15-0.12,0.32-0.19,0.52-0.19c0.2,0.02,0.36,0.11,0.48,0.26
			C222.73,208.29,222.79,208.46,222.79,208.66z"/>
		<path class="st0" d="M226.91,233.64c-1.19-0.15-1.98-0.84-2.38-2.08c-0.2-0.62-0.26-1.33-0.19-2.12c0.07-0.79,0.25-1.59,0.54-2.4
			c0.28-0.81,0.67-1.59,1.15-2.36c0.48-0.77,1.05-1.45,1.69-2.04c0.74-0.69,1.47-1.19,2.19-1.49c0.72-0.3,1.39-0.48,2.01-0.56
			c0.62-0.07,1.18-0.06,1.69,0.04c0.51,0.1,0.91,0.2,1.21,0.3c0.07-0.67,0.11-1.04,0.11-1.12c0.05-0.2,0.15-0.35,0.3-0.46
			c0.15-0.11,0.32-0.14,0.52-0.09c0.2,0.02,0.36,0.12,0.48,0.28c0.12,0.16,0.16,0.34,0.11,0.54c-0.15,1.26-0.21,2.44-0.19,3.51
			c0.02,1.08,0.12,2.34,0.3,3.79c0.17,1.45,0.51,3.01,1,4.67c0.05,0.2,0.03,0.38-0.06,0.54c-0.09,0.16-0.23,0.27-0.43,0.32
			c-0.02,0.03-0.09,0.04-0.19,0.04c-0.15,0-0.29-0.04-0.41-0.13c-0.12-0.09-0.21-0.2-0.26-0.35c-0.37-1.26-0.66-2.45-0.86-3.57
			c-0.2-1.12-0.33-2.16-0.41-3.12c-0.35,0.84-0.77,1.73-1.26,2.66c-0.5,0.93-1.05,1.78-1.67,2.57c-0.62,0.78-1.31,1.43-2.06,1.93
			c-0.76,0.51-1.56,0.76-2.4,0.76C227.22,233.68,227.04,233.67,226.91,233.64z M228.7,223.68c-0.6,0.57-1.1,1.2-1.52,1.88
			c-0.42,0.68-0.75,1.36-0.99,2.03c-0.24,0.67-0.38,1.31-0.45,1.93c-0.06,0.62-0.02,1.15,0.13,1.6c0.22,0.67,0.63,1.04,1.23,1.12
			c0.57,0.1,1.13-0.01,1.67-0.32c0.54-0.31,1.07-0.74,1.56-1.3c0.5-0.56,0.97-1.2,1.41-1.93c0.45-0.73,0.86-1.47,1.23-2.23
			c0.37-0.76,0.69-1.49,0.97-2.21c0.27-0.72,0.5-1.35,0.67-1.9c-0.12-0.05-0.35-0.13-0.69-0.24c-0.33-0.11-0.75-0.17-1.25-0.17
			c-0.55,0-1.16,0.12-1.84,0.35C230.15,222.52,229.44,222.99,228.7,223.68z"/>
		<path class="st0" d="M243.64,235.95c-0.62,0-1.17-0.37-1.64-1.12c-0.5-0.72-0.92-1.55-1.26-2.49c-0.35-0.94-0.64-1.91-0.89-2.92
			c-0.25-1-0.45-1.99-0.61-2.96c-0.16-0.97-0.29-1.84-0.37-2.62c-0.09-0.78-0.14-1.42-0.17-1.91c-0.02-0.5-0.04-0.78-0.04-0.86
			c0-0.2,0.06-0.37,0.19-0.5c0.12-0.14,0.28-0.22,0.48-0.24c0.2,0,0.37,0.07,0.52,0.2c0.15,0.14,0.22,0.3,0.22,0.5
			c0,0.03,0.01,0.27,0.04,0.72c0.02,0.46,0.08,1.05,0.17,1.78c0.09,0.73,0.2,1.57,0.33,2.51c0.14,0.94,0.32,1.89,0.56,2.84
			c0.24,0.95,0.51,1.88,0.84,2.77c0.32,0.89,0.71,1.67,1.15,2.34c0.07,0.12,0.14,0.22,0.2,0.28c0.06,0.06,0.12,0.12,0.17,0.17
			c0.05,0.05,0.09,0.07,0.11,0.07c0.1-0.02,0.22-0.15,0.37-0.37c0.12-0.17,0.27-0.44,0.45-0.8c0.17-0.36,0.36-0.86,0.56-1.51
			c0.27-0.87,0.54-1.85,0.82-2.96c0.27-1.1,0.54-2.21,0.82-3.33c0.27-1.19,0.54-2.32,0.82-3.38c0.27-1.07,0.54-2.01,0.82-2.83
			c0.05-0.2,0.16-0.33,0.33-0.41c0.17-0.07,0.36-0.09,0.56-0.04c0.2,0.07,0.33,0.2,0.41,0.37c0.07,0.17,0.09,0.36,0.04,0.56
			c-0.27,0.79-0.54,1.71-0.8,2.75c-0.26,1.04-0.53,2.14-0.8,3.31c-0.35,1.49-0.68,2.83-0.98,4.03c-0.31,1.2-0.63,2.23-0.95,3.09
			c-0.32,0.86-0.66,1.53-1,2.03c-0.35,0.5-0.74,0.78-1.19,0.86C243.85,235.94,243.77,235.95,243.64,235.95z"/>
		<path class="st0" d="M250.89,233.64c-1.19-0.15-1.98-0.84-2.38-2.08c-0.2-0.62-0.26-1.33-0.19-2.12c0.07-0.79,0.25-1.59,0.54-2.4
			c0.28-0.81,0.67-1.59,1.15-2.36c0.48-0.77,1.05-1.45,1.69-2.04c0.74-0.69,1.47-1.19,2.19-1.49c0.72-0.3,1.39-0.48,2.01-0.56
			c0.62-0.07,1.18-0.06,1.69,0.04c0.51,0.1,0.91,0.2,1.21,0.3c0.07-0.67,0.11-1.04,0.11-1.12c0.05-0.2,0.15-0.35,0.3-0.46
			c0.15-0.11,0.32-0.14,0.52-0.09c0.2,0.02,0.36,0.12,0.48,0.28c0.12,0.16,0.16,0.34,0.11,0.54c-0.15,1.26-0.21,2.44-0.19,3.51
			c0.02,1.08,0.12,2.34,0.3,3.79c0.17,1.45,0.51,3.01,1,4.67c0.05,0.2,0.03,0.38-0.06,0.54c-0.09,0.16-0.23,0.27-0.43,0.32
			c-0.02,0.03-0.09,0.04-0.19,0.04c-0.15,0-0.29-0.04-0.41-0.13c-0.12-0.09-0.21-0.2-0.26-0.35c-0.37-1.26-0.66-2.45-0.86-3.57
			c-0.2-1.12-0.33-2.16-0.41-3.12c-0.35,0.84-0.77,1.73-1.26,2.66c-0.5,0.93-1.05,1.78-1.67,2.57c-0.62,0.78-1.31,1.43-2.06,1.93
			c-0.76,0.51-1.56,0.76-2.4,0.76C251.2,233.68,251.02,233.67,250.89,233.64z M252.68,223.68c-0.6,0.57-1.1,1.2-1.52,1.88
			c-0.42,0.68-0.75,1.36-0.99,2.03c-0.24,0.67-0.38,1.31-0.45,1.93c-0.06,0.62-0.02,1.15,0.13,1.6c0.22,0.67,0.63,1.04,1.23,1.12
			c0.57,0.1,1.13-0.01,1.67-0.32c0.54-0.31,1.07-0.74,1.56-1.3c0.5-0.56,0.97-1.2,1.41-1.93c0.45-0.73,0.86-1.47,1.23-2.23
			c0.37-0.76,0.69-1.49,0.97-2.21c0.27-0.72,0.5-1.35,0.67-1.9c-0.12-0.05-0.35-0.13-0.69-0.24c-0.33-0.11-0.75-0.17-1.25-0.17
			c-0.55,0-1.16,0.12-1.84,0.35C254.13,222.52,253.42,222.99,252.68,223.68z"/>
		<path class="st0" d="M272.75,234.42c-0.2-1.07-0.36-2.2-0.48-3.4c-0.12-1.2-0.21-2.39-0.26-3.57c-0.05-1.18-0.07-2.3-0.07-3.38
			c0-1.08,0.01-2.04,0.02-2.88c0.01-0.84,0.04-1.52,0.07-2.04c0.04-0.52,0.06-0.82,0.06-0.89c0.02-0.2,0.11-0.37,0.24-0.5
			c0.14-0.14,0.3-0.19,0.5-0.17c0.2,0.03,0.37,0.11,0.5,0.24c0.14,0.14,0.19,0.3,0.17,0.5c0,0.03-0.02,0.35-0.06,0.97
			c-0.04,0.62-0.06,1.43-0.07,2.44c-0.01,1-0.01,2.14,0,3.42c0.01,1.28,0.07,2.58,0.17,3.92c0.17-0.87,0.4-1.75,0.67-2.66
			c0.27-0.9,0.6-1.73,0.97-2.49c0.37-0.76,0.8-1.41,1.28-1.95c0.48-0.54,1.02-0.89,1.62-1.04c0.52-0.1,0.99,0,1.41,0.3
			c0.25,0.17,0.47,0.41,0.67,0.71c0.2,0.3,0.37,0.63,0.52,1c0.15,0.37,0.28,0.76,0.41,1.15c0.12,0.4,0.22,0.79,0.3,1.19
			c0.32-0.74,0.7-1.54,1.13-2.4c0.43-0.86,0.92-1.63,1.45-2.32c0.53-0.69,1.1-1.25,1.71-1.65c0.61-0.41,1.23-0.55,1.88-0.43
			c0.64,0.12,1.18,0.53,1.6,1.21c0.42,0.68,0.77,1.52,1.04,2.51c0.27,0.99,0.48,2.08,0.61,3.25c0.14,1.18,0.24,2.3,0.3,3.38
			c0.06,1.08,0.09,2.05,0.07,2.92c-0.01,0.87-0.02,1.5-0.02,1.9c-0.03,0.2-0.11,0.37-0.24,0.5c-0.14,0.14-0.3,0.2-0.5,0.2
			c-0.2-0.02-0.37-0.11-0.5-0.24c-0.14-0.14-0.19-0.3-0.17-0.5c0.05-1.59,0.03-3.18-0.06-4.78c-0.09-1.6-0.24-3.05-0.45-4.35
			c-0.21-1.3-0.48-2.37-0.8-3.22c-0.32-0.84-0.71-1.3-1.15-1.38c-0.42-0.07-0.89,0.15-1.41,0.67c-0.52,0.52-1.04,1.2-1.54,2.04
			c-0.51,0.84-0.99,1.77-1.45,2.79c-0.46,1.02-0.84,1.97-1.13,2.86c-0.12,0.35-0.37,0.5-0.74,0.45c-0.37-0.05-0.58-0.26-0.63-0.63
			c-0.05-0.5-0.12-1.04-0.22-1.64c-0.1-0.59-0.22-1.16-0.37-1.71c-0.15-0.54-0.32-1.03-0.5-1.47c-0.19-0.43-0.39-0.73-0.61-0.87
			c-0.07-0.05-0.13-0.07-0.17-0.07s-0.07,0-0.09,0c-0.59,0.15-1.13,0.66-1.6,1.52c-0.47,0.87-0.89,1.9-1.25,3.09
			c-0.36,1.19-0.66,2.45-0.89,3.79c-0.24,1.34-0.4,2.55-0.5,3.64c-0.03,0.17-0.1,0.32-0.22,0.45c-0.12,0.12-0.29,0.19-0.48,0.19
			h-0.04C273.02,234.98,272.8,234.79,272.75,234.42z"/>
		<path class="st0" d="M295.02,233.64c-1.19-0.15-1.98-0.84-2.38-2.08c-0.2-0.62-0.26-1.33-0.19-2.12c0.07-0.79,0.25-1.59,0.54-2.4
			c0.28-0.81,0.67-1.59,1.15-2.36c0.48-0.77,1.05-1.45,1.69-2.04c0.74-0.69,1.47-1.19,2.19-1.49c0.72-0.3,1.39-0.48,2.01-0.56
			c0.62-0.07,1.18-0.06,1.69,0.04c0.51,0.1,0.91,0.2,1.21,0.3c0.07-0.67,0.11-1.04,0.11-1.12c0.05-0.2,0.15-0.35,0.3-0.46
			c0.15-0.11,0.32-0.14,0.52-0.09c0.2,0.02,0.36,0.12,0.48,0.28c0.12,0.16,0.16,0.34,0.11,0.54c-0.15,1.26-0.21,2.44-0.19,3.51
			c0.02,1.08,0.12,2.34,0.3,3.79c0.17,1.45,0.51,3.01,1,4.67c0.05,0.2,0.03,0.38-0.06,0.54c-0.09,0.16-0.23,0.27-0.43,0.32
			c-0.02,0.03-0.09,0.04-0.19,0.04c-0.15,0-0.29-0.04-0.41-0.13c-0.12-0.09-0.21-0.2-0.26-0.35c-0.37-1.26-0.66-2.45-0.86-3.57
			c-0.2-1.12-0.33-2.16-0.41-3.12c-0.35,0.84-0.77,1.73-1.26,2.66c-0.5,0.93-1.05,1.78-1.67,2.57c-0.62,0.78-1.31,1.43-2.06,1.93
			c-0.76,0.51-1.56,0.76-2.4,0.76C295.33,233.68,295.14,233.67,295.02,233.64z M296.8,223.68c-0.6,0.57-1.1,1.2-1.52,1.88
			c-0.42,0.68-0.75,1.36-0.99,2.03c-0.24,0.67-0.38,1.31-0.45,1.93c-0.06,0.62-0.02,1.15,0.13,1.6c0.22,0.67,0.63,1.04,1.23,1.12
			c0.57,0.1,1.13-0.01,1.67-0.32c0.54-0.31,1.07-0.74,1.56-1.3c0.5-0.56,0.97-1.2,1.41-1.93c0.45-0.73,0.86-1.47,1.23-2.23
			c0.37-0.76,0.69-1.49,0.97-2.21c0.27-0.72,0.5-1.35,0.67-1.9c-0.12-0.05-0.35-0.13-0.69-0.24c-0.33-0.11-0.75-0.17-1.25-0.17
			c-0.55,0-1.16,0.12-1.84,0.35C298.26,222.52,297.55,222.99,296.8,223.68z"/>
		<path class="st0" d="M311.12,229.22c-0.64-0.54-1.32-1.2-2.03-1.97c-0.71-0.77-1.31-1.73-1.8-2.9c-0.47-1.12-0.63-2.2-0.48-3.25
			c0.15-1.05,0.59-2.01,1.34-2.88c0.74-0.87,1.65-1.49,2.71-1.88c1.07-0.38,2.06-0.45,2.97-0.2c0.87,0.25,1.54,0.65,2.03,1.21
			c0.48,0.56,0.82,1.18,1.02,1.86c0.2,0.68,0.28,1.36,0.26,2.04c-0.02,0.68-0.1,1.27-0.22,1.77c-0.05,0.2-0.16,0.35-0.32,0.45
			c-0.16,0.1-0.34,0.12-0.54,0.07c-0.2-0.05-0.35-0.15-0.45-0.32c-0.1-0.16-0.12-0.34-0.07-0.54c0-0.05,0.04-0.31,0.11-0.78
			c0.07-0.47,0.07-1,0-1.58c-0.07-0.58-0.27-1.15-0.58-1.69c-0.31-0.54-0.85-0.92-1.62-1.12c-0.64-0.17-1.37-0.11-2.17,0.2
			c-0.81,0.31-1.49,0.79-2.06,1.43c-0.15,0.2-0.32,0.44-0.5,0.72c-0.19,0.29-0.33,0.63-0.43,1.02c-0.1,0.4-0.14,0.84-0.11,1.32
			c0.02,0.48,0.16,1.01,0.41,1.58c0.45,1.04,0.98,1.89,1.62,2.55c0.63,0.66,1.25,1.26,1.84,1.8c0.37,0.35,0.74,0.69,1.1,1.02
			c0.36,0.33,0.66,0.7,0.89,1.1c0.24,0.4,0.39,0.82,0.46,1.28c0.07,0.46,0.04,0.97-0.11,1.54c-0.27,0.92-0.7,1.59-1.28,2.03
			c-0.58,0.43-1.18,0.65-1.8,0.65c-0.25,0-0.43-0.01-0.56-0.04c-0.64-0.15-1.2-0.54-1.65-1.17c-0.46-0.63-0.59-1.51-0.39-2.62
			c0.05-0.2,0.15-0.35,0.3-0.46c0.15-0.11,0.32-0.14,0.52-0.09c0.2,0.05,0.36,0.16,0.48,0.32c0.12,0.16,0.16,0.34,0.11,0.54
			c-0.12,0.62-0.08,1.1,0.13,1.45c0.21,0.35,0.48,0.56,0.8,0.63c0.35,0.1,0.71,0.02,1.1-0.22c0.38-0.25,0.67-0.72,0.87-1.41
			c0.1-0.35,0.13-0.66,0.09-0.93c-0.04-0.27-0.14-0.54-0.32-0.8c-0.17-0.26-0.4-0.53-0.67-0.8
			C311.85,229.88,311.51,229.57,311.12,229.22z"/>
		<path class="st0" d="M321.52,236.21c-0.5-0.12-0.95-0.38-1.38-0.76c-0.42-0.38-0.78-0.87-1.08-1.45c-0.3-0.58-0.53-1.25-0.71-1.99
			c-0.17-0.74-0.26-1.55-0.26-2.42c0-1.41,0.11-2.8,0.33-4.16c0.22-1.36,0.54-2.58,0.97-3.66c0.42-1.08,0.94-1.95,1.54-2.62
			c0.61-0.67,1.29-1,2.06-1c0.72,0,1.33,0.26,1.82,0.78c0.27,0.32,0.48,0.69,0.61,1.1c0.14,0.41,0.22,0.81,0.26,1.19
			c0.04,0.38,0.05,0.72,0.04,1c-0.01,0.29-0.02,0.46-0.02,0.54c-0.03,0.2-0.11,0.36-0.26,0.48c-0.15,0.12-0.32,0.17-0.52,0.15
			c-0.2-0.02-0.36-0.11-0.48-0.26c-0.12-0.15-0.17-0.32-0.15-0.52c0.02-0.12,0.04-0.31,0.04-0.56c0-0.25-0.02-0.5-0.06-0.76
			c-0.04-0.26-0.1-0.52-0.19-0.78c-0.09-0.26-0.2-0.48-0.35-0.65c-0.2-0.2-0.45-0.3-0.74-0.3c-0.42,0-0.84,0.25-1.25,0.76
			c-0.41,0.51-0.78,1.21-1.12,2.1c-0.33,0.89-0.61,1.95-0.82,3.18c-0.21,1.23-0.32,2.56-0.32,4c0,1.34,0.22,2.5,0.67,3.49
			c0.45,0.99,1,1.57,1.67,1.75c0.79,0.2,1.69-0.23,2.7-1.28c1-1.05,2.03-2.61,3.07-4.67c0.07-0.2,0.2-0.32,0.39-0.37
			c0.19-0.05,0.37-0.04,0.54,0.04c0.2,0.1,0.33,0.24,0.39,0.41c0.06,0.17,0.04,0.36-0.06,0.56c-0.67,1.36-1.32,2.48-1.95,3.35
			c-0.63,0.87-1.23,1.56-1.78,2.06c-0.56,0.51-1.08,0.86-1.58,1.06c-0.5,0.2-0.95,0.3-1.38,0.3c-0.12,0-0.24-0.01-0.33-0.02
			C321.76,236.25,321.65,236.23,321.52,236.21z"/>
		<path class="st0" d="M332.6,234.94c-0.3-0.22-0.58-0.54-0.84-0.95c-0.26-0.41-0.5-0.87-0.71-1.39c-0.21-0.52-0.39-1.09-0.54-1.71
			c-0.15-0.62-0.26-1.26-0.33-1.93c-0.05-0.5-0.07-1.1-0.07-1.8c0-0.71,0.09-1.46,0.26-2.25c0.17-0.79,0.45-1.61,0.82-2.45
			c0.37-0.84,0.9-1.66,1.6-2.45c0.94-1.09,2.09-1.39,3.46-0.89c0.5,0.2,0.99,0.53,1.47,1c0.48,0.47,0.92,1.07,1.3,1.8
			c0.38,0.73,0.69,1.59,0.91,2.57c0.22,0.98,0.32,2.06,0.3,3.25c-0.02,1.04-0.16,1.98-0.39,2.81c-0.24,0.83-0.53,1.55-0.89,2.16
			c-0.36,0.61-0.77,1.12-1.23,1.52c-0.46,0.41-0.91,0.72-1.36,0.95c-0.59,0.3-1.19,0.45-1.78,0.45
			C333.8,235.61,333.15,235.39,332.6,234.94z M333.83,220.93c-0.6,0.67-1.05,1.38-1.38,2.12c-0.32,0.74-0.55,1.47-0.69,2.17
			c-0.14,0.71-0.21,1.38-0.22,2.01c-0.01,0.63,0.01,1.17,0.06,1.62c0.12,1.34,0.39,2.44,0.8,3.31c0.41,0.87,0.76,1.43,1.06,1.67
			c0.62,0.47,1.38,0.5,2.27,0.07c0.35-0.17,0.7-0.43,1.06-0.76c0.36-0.33,0.69-0.76,0.99-1.26c0.3-0.51,0.54-1.11,0.73-1.8
			c0.19-0.69,0.29-1.47,0.32-2.34c0.02-0.99-0.05-1.9-0.22-2.73c-0.17-0.83-0.4-1.55-0.69-2.17c-0.29-0.62-0.62-1.13-1-1.54
			c-0.38-0.41-0.77-0.69-1.17-0.84C335.03,220.15,334.4,220.31,333.83,220.93z"/>
		<path class="st0" d="M350.78,227.92c0.2,0.05,0.34,0.16,0.43,0.33c0.09,0.17,0.09,0.36,0.02,0.56c-0.2,0.67-0.48,1.51-0.84,2.51
			c-0.36,1-0.77,1.97-1.25,2.9c-0.47,0.93-0.98,1.73-1.52,2.4c-0.55,0.67-1.1,1-1.67,1h-0.07c-0.35,0-0.64-0.11-0.89-0.33
			c-0.25-0.22-0.46-0.5-0.63-0.84c-0.17-0.33-0.31-0.7-0.42-1.1c-0.11-0.4-0.2-0.77-0.27-1.12c-0.27-1.34-0.46-2.84-0.58-4.52
			c-0.12-1.67-0.19-3.4-0.2-5.17c-0.01-1.77,0.01-3.54,0.07-5.3c0.06-1.76,0.13-3.38,0.2-4.87c-0.64,0.05-1.26,0.1-1.84,0.15
			c-0.58,0.05-1.1,0.1-1.54,0.15c-0.45,0.05-0.93,0.1-1.45,0.15h-0.07c-0.42,0-0.66-0.21-0.71-0.63c-0.05-0.46,0.16-0.71,0.63-0.76
			c0.02,0,0.18-0.02,0.46-0.05c0.28-0.04,0.66-0.08,1.12-0.13c0.46-0.05,0.99-0.09,1.58-0.13c0.6-0.04,1.23-0.08,1.9-0.13
			c0.12-1.54,0.22-2.79,0.29-3.77c0.07-0.98,0.12-1.53,0.14-1.65c0.02-0.2,0.11-0.36,0.25-0.48c0.14-0.12,0.31-0.17,0.51-0.15
			c0.19,0.03,0.35,0.11,0.48,0.26c0.12,0.15,0.17,0.32,0.15,0.52c0,0.05-0.04,0.55-0.13,1.49c-0.09,0.94-0.18,2.17-0.28,3.68
			c0.94-0.05,1.87-0.07,2.79-0.07c0.92,0,1.75,0.02,2.49,0.07c0.2,0.02,0.36,0.11,0.48,0.25c0.12,0.15,0.17,0.31,0.15,0.51
			c-0.05,0.46-0.31,0.67-0.78,0.62c-0.72-0.05-1.53-0.07-2.43-0.06c-0.91,0.01-1.83,0.04-2.77,0.09c-0.1,1.49-0.17,3.1-0.24,4.83
			c-0.06,1.74-0.08,3.49-0.05,5.26c0.02,1.77,0.09,3.49,0.2,5.15c0.11,1.66,0.3,3.14,0.57,4.42c0.1,0.52,0.2,0.93,0.3,1.23
			c0.1,0.3,0.2,0.52,0.3,0.67c0.1,0.17,0.2,0.28,0.3,0.33c0.17,0,0.41-0.2,0.72-0.59c0.31-0.4,0.64-0.95,1-1.65
			c0.36-0.71,0.73-1.53,1.12-2.47c0.38-0.94,0.75-1.97,1.1-3.09c0.05-0.2,0.16-0.34,0.33-0.43
			C350.4,227.89,350.58,227.87,350.78,227.92z"/>
		<path class="st0" d="M352.05,233.64c-1.19-0.15-1.98-0.84-2.38-2.08c-0.2-0.62-0.26-1.33-0.19-2.12c0.07-0.79,0.25-1.59,0.54-2.4
			c0.28-0.81,0.67-1.59,1.15-2.36c0.48-0.77,1.05-1.45,1.69-2.04c0.74-0.69,1.47-1.19,2.19-1.49c0.72-0.3,1.39-0.48,2.01-0.56
			c0.62-0.07,1.18-0.06,1.69,0.04c0.51,0.1,0.91,0.2,1.21,0.3c0.07-0.67,0.11-1.04,0.11-1.12c0.05-0.2,0.15-0.35,0.3-0.46
			c0.15-0.11,0.32-0.14,0.52-0.09c0.2,0.02,0.36,0.12,0.48,0.28c0.12,0.16,0.16,0.34,0.11,0.54c-0.15,1.26-0.21,2.44-0.19,3.51
			c0.02,1.08,0.12,2.34,0.3,3.79c0.17,1.45,0.51,3.01,1,4.67c0.05,0.2,0.03,0.38-0.06,0.54c-0.09,0.16-0.23,0.27-0.43,0.32
			c-0.02,0.03-0.09,0.04-0.19,0.04c-0.15,0-0.29-0.04-0.41-0.13c-0.12-0.09-0.21-0.2-0.26-0.35c-0.37-1.26-0.66-2.45-0.86-3.57
			c-0.2-1.12-0.33-2.16-0.41-3.12c-0.35,0.84-0.77,1.73-1.26,2.66c-0.5,0.93-1.05,1.78-1.67,2.57c-0.62,0.78-1.31,1.43-2.06,1.93
			c-0.76,0.51-1.56,0.76-2.4,0.76C352.36,233.68,352.17,233.67,352.05,233.64z M353.83,223.68c-0.6,0.57-1.1,1.2-1.52,1.88
			c-0.42,0.68-0.75,1.36-0.99,2.03c-0.24,0.67-0.38,1.31-0.45,1.93c-0.06,0.62-0.02,1.15,0.13,1.6c0.22,0.67,0.63,1.04,1.23,1.12
			c0.57,0.1,1.13-0.01,1.67-0.32c0.54-0.31,1.07-0.74,1.56-1.3c0.5-0.56,0.97-1.2,1.41-1.93c0.45-0.73,0.86-1.47,1.23-2.23
			c0.37-0.76,0.69-1.49,0.97-2.21c0.27-0.72,0.5-1.35,0.67-1.9c-0.12-0.05-0.35-0.13-0.69-0.24c-0.33-0.11-0.75-0.17-1.25-0.17
			c-0.55,0-1.16,0.12-1.84,0.35C355.29,222.52,354.57,222.99,353.83,223.68z"/>
	</g>
	<g>
		<path class="st1" d="M224.01,176.55c0.58-1.49,1.7-2.11,2.77-2.11c1.38,0,2.68,1.04,2.68,2.63c0,0.39-0.08,0.8-0.25,1.25
			c-5.12,13.01-10.07,19.81-17.88,19.81c-7.22,0-12.98-5.54-12.93-22c0.08-26.74,6.12-32.53,13.67-32.53c4.37,0,7.8,3.2,7.56,8.31
			c-0.39,8.07-3.9,16.56-14.4,28.35c0.46,6.62,2.42,11.74,6.69,11.74C217.13,192,221.66,182.52,224.01,176.55L224.01,176.55z
			 M211.32,149.74c-2.45,0-5.37,2.11-6.09,21.33c4.7-6.84,7.86-11.54,7.86-17.97C213.09,150.41,212.42,149.74,211.32,149.74
			L211.32,149.74z"/>
		<path class="st1" d="M233.16,198.21c-5.46,0-9.57-4.11-9.57-14.02c0-4.37,0.92-12.09,1.76-16.79c0.42-2.43,2.01-3.69,3.61-3.69
			c1.76,0,3.36,1.43,3.02,4.45c-0.59,5.2-1.68,11.67-1.68,16.54c0,5.88,1.51,7.39,3.27,7.39c3.36,0,7.56-8.56,10.24-15.53
			c0.62-1.59,1.69-2.23,2.71-2.23c1.4,0,2.72,1.2,2.72,2.81c0,0.38-0.07,0.77-0.23,1.18C244.24,190.58,240.3,198.22,233.16,198.21
			L233.16,198.21z M225.61,157.6c0-2.18,1.76-3.95,4.03-3.95c2.18,0,3.95,1.76,3.95,3.95c0,2.27-1.76,4.03-3.95,4.03
			C227.37,161.63,225.61,159.87,225.61,157.6z"/>
		<path class="st1" d="M298.73,176.56c0.57-1.44,1.72-2.08,2.82-2.08c1.35,0,2.61,0.96,2.61,2.59c0,0.38-0.07,0.8-0.22,1.25
			c-4.79,12.42-9.57,19.64-15.45,19.64c-4.62,0-7.89-3.27-7.89-9.82c0-6.04,1.26-10.83,1.26-14.44c0-2.6-1.01-3.61-3.11-3.61
			c-3.86,0-9.4,3.45-9.45,16.92v0.1c0,1.93,0.34,4.1,0.34,4.61c0,1.76-1.01,3.11-2.85,3.11c-2.94,0-4.2-0.32-4.2-7.38
			c0-6.88,1.73-9.97,1.73-12.83c0-1.68-0.76-2.43-2.52-2.43c-4.06,0-10.5,6.38-11.47,16.98c-0.02,1.76-0.04,3.65-0.04,5.69
			c0,2.35-1.26,3.78-3.27,3.78c-2.35,0-3.44-1.43-3.44-3.78c0-11.17,0.42-19.8,1.34-26.69c0.25-1.85,1.43-3.36,3.53-3.36
			c2.18,0,3.11,1.34,3.11,3.61c0,0.78-0.3,1.35-0.6,5.35c3.24-5.07,7.46-7.71,12.36-7.71c2.69,0,5.13,1.5,6.44,3.78
			c2.99-3.9,6.63-5.88,10.6-5.88c4.95,0,8.31,3.36,8.31,8.31c0,4.2-1.34,10.07-1.34,16.87c0,1.76,0.84,2.6,1.93,2.6
			C292.26,191.75,296.71,181.68,298.73,176.56L298.73,176.56z"/>
		<path class="st1" d="M335.83,176.56c0.62-1.57,1.76-2.23,2.84-2.23c1.36,0,2.61,1.05,2.61,2.68c0,0.41-0.08,0.85-0.25,1.32
			c-3.5,9.51-11.05,15.38-21.09,17.45c-2.27,1.93-4.78,3.11-7.28,3.11c-3.02,0-4.45-1.93-4.45-3.86c0-2.01,1.51-4.11,4.28-4.11
			c1.26,0,2.45-0.06,3.59-0.17c3.7-3.39,6.31-10.02,6.31-14.94c0-3.44-1.6-6.04-4.7-6.04c-4.99,0-10.21,6.02-11.67,12.21
			c-0.02,10.53-0.36,17.06-1.94,28.82c-0.25,2.01-1.85,3.02-3.36,3.02c-1.68,0-3.36-1.18-3.36-3.27c0-1.68,1.94-12.48,1.94-28.52
			c0-7.81-1.18-13.42-1.18-14.68c0-2.18,1.68-3.27,3.36-3.27c1.34,0,2.69,0.76,3.11,2.27c0.43,1.68,0.73,2.67,0.95,4.6
			c3.47-4.27,8.19-7.38,12.73-7.38c6.3,0,10.83,4.53,10.83,12.42c0,3.88-1.2,8.13-3.14,11.91
			C331.25,185.03,334.2,180.63,335.83,176.56L335.83,176.56z"/>
		<path class="st1" d="M344.98,198.21c-5.46,0-9.57-4.11-9.57-14.02c0-4.37,0.92-12.09,1.76-16.79c0.42-2.43,2.01-3.69,3.61-3.69
			c1.76,0,3.36,1.43,3.02,4.45c-0.59,5.2-1.68,11.67-1.68,16.54c0,5.88,1.51,7.39,3.27,7.39c3.36,0,7.56-8.56,10.24-15.53
			c0.62-1.59,1.69-2.23,2.71-2.23c1.4,0,2.72,1.2,2.72,2.81c0,0.38-0.07,0.77-0.23,1.18C356.06,190.58,352.11,198.22,344.98,198.21
			L344.98,198.21z M337.42,157.6c0-2.18,1.76-3.95,4.03-3.95c2.18,0,3.95,1.76,3.95,3.95c0,2.27-1.76,4.03-3.95,4.03
			C339.19,161.63,337.42,159.87,337.42,157.6z"/>
		<path class="st1" d="M395.68,176.56c0.63-1.6,1.71-2.25,2.74-2.25c1.39,0,2.7,1.19,2.7,2.81c0,0.38-0.07,0.78-0.23,1.2
			c-4.79,12.68-9.15,19.9-15.2,19.9c-3.46,0-6.78-2.4-8.15-7.5c-3.33,4.92-7.03,7.5-11.91,7.5c-6.63,0-11.42-4.62-11.42-13.6
			c0-12.09,8.48-20.99,17.04-20.99c2.23,0,4.48,0.58,6.62,1.83c0.6-1.64,1.69-2.59,3.37-2.59c1.6,0,3.02,1.18,3.02,3.61
			c0,2.01-1.34,12-1.34,16.79c0,7.14,1.68,8.81,3.36,8.81C388.97,192.09,392.74,184.03,395.68,176.56L395.68,176.56z M366.55,192
			c2.96,0,8.01-2.66,10.11-12.15c0.27-1.82,0.5-3.86,0.59-7.03c-0.71-1.86-2.61-3.07-5.16-3.07c-5.62,0-11.17,6.3-11.17,14.61
			C360.93,189.65,363.28,192,366.55,192L366.55,192z"/>
	</g>
	<g>
		<path class="st1" d="M186.59,190.97c-1.19,0-2.31-0.72-2.77-1.9c-0.59-1.53,0.17-3.24,1.69-3.83l0,0
			c0.15-0.06,15.07-5.98,23.18-19.24c0.86-1.4,2.68-1.84,4.08-0.98c1.4,0.86,1.84,2.68,0.98,4.08
			c-9.19,15.01-25.42,21.41-26.1,21.67C187.31,190.9,186.95,190.97,186.59,190.97z"/>
	</g>
	<g>
		<path class="st1" d="M42.41,202c3.11-11.23,11.07-21.45,15.98-26.95c-0.3-1.16-0.51-2.62-0.32-4.05c0-0.02-0.28-0.11-0.27-0.12
			c-2.37,2.48-6.1,6.7-9.72,12.03c-3.32,4.89-5.46,9.18-7.18,13.86L42.41,202z"/>
	</g>
	<path class="st1" d="M36.44,216.01c-0.13-0.06-0.25-0.11-0.39-0.17c-1.94-0.89-4.59-2.51-7.31-5.39c0.84,0.07,1.63,0.09,2.18,0.03
		c0.67-0.08,1.22-0.58,1.37-1.24c0.16-0.66-0.12-1.35-0.68-1.72c-0.08-0.05-6.99-4.72-7.75-11.32c0.53,0.07,1.12,0.07,1.74-0.07
		c0.43-0.1,0.81-0.37,1.04-0.75c0.23-0.38,0.29-0.84,0.17-1.27c-0.02-0.06-1.31-4.89,1.36-9.14c1.07,4,4.69,9.96,16.43,13.11
		c1.47,1.43,3.96,4.35,5.25,7.44l4.05,4.14c0.35-6.96-7.04-13.91-7.38-14.23c-0.2-0.18-0.44-0.31-0.7-0.38
		c-15.78-4.07-14.86-13.28-14.81-13.66c0.09-0.66-0.23-1.31-0.81-1.63c-0.58-0.33-1.3-0.26-1.82,0.16
		c-4.94,4.07-5.33,9.54-5.07,12.65c0,0-0.01-0.01-0.01-0.01c-0.46-0.39-1.09-0.5-1.65-0.28c-0.56,0.22-0.95,0.74-1.01,1.33
		c-0.6,5.68,2.49,10.29,5.26,13.2c-0.26-0.04-0.51-0.08-0.73-0.12c-0.65-0.11-1.3,0.18-1.65,0.74c-0.35,0.56-0.33,1.27,0.06,1.81
		c5.51,7.63,11.66,10.08,14.87,10.86C37.41,218.82,36.78,217.44,36.44,216.01z"/>
	<path class="st1" d="M74.38,225.59c-0.92,0.17-1.83,0.29-2.7,0.38c-3.83,0.39-6.89,0.12-6.97,0.12c-0.07-0.01-0.14-0.01-0.21-0.01
		c-3.38,0.11-6.33-0.11-8.83-0.64c-0.46,1.32-1.13,2.25-1.93,2.9c3,0.79,6.59,1.12,10.77,0.99c0.38,0.03,1.52,0.12,3.12,0.12
		c1.92,0,4.51-0.13,7.24-0.61C74.8,228.07,74.63,226.95,74.38,225.59z"/>
	<g>
		<path class="st1" d="M111.78,153.35c0.62,9.58-1.18,13.98-5.89,14.58c-0.19,0.02-0.37,0.04-0.55,0.04c0,0,0,0,0,0
			c-4.46,0-5.47-8.3-5.68-11.21c-1.16,0.41-2.24,0.56-3.23,0.52c0.3,3.86,1.76,13.93,8.91,13.93c0,0,0,0,0,0
			c0.31,0,0.63-0.02,0.96-0.06c9.82-1.24,9.18-13.31,8.64-19.37C114.01,152.57,112.91,153.06,111.78,153.35z"/>
		<path class="st1" d="M105.87,153.46c-0.56-0.09-0.89-0.18-0.89-0.18c-0.22,0.21-0.44,0.4-0.66,0.59
			C104.83,153.72,105.35,153.58,105.87,153.46z"/>
	</g>
</g>
</svg>
